# xmcd CD database file
# Copyright (C) 1997 Ti Kan
# 
# Track frame offsets:
#     150
#     18825
#     39692
#     56937
#     65000
#     83825
#     103500
#     125450
#     146187
#     171670
#     187650
# 
# Disc length: 2800 seconds
# 
# Revision: 1
# Processed by: cddbd v1.4b41PL1 Copyright (c) Steve Scherf et al.
# Submitted via: DiscPlay 4.0.4
# 
DISCID=9d0aee0b
DTITLE=Family - Bandstand
DYEAR=1900
DGENRE=
TTITLE0=Burlesque
TTITLE1=Bolero Babe
TTITLE2=Coronation
TTITLE3=Dark Eyes
TTITLE4=Broken Nose
TTITLE5=My Friend The Sun
TTITLE6=Glove
TTITLE7=Ready To Go
TTITLE8=Top Of The Hill
TTITLE9=Good Friend Of Mine
TTITLE10=Today
EXTD=
EXTT0=
EXTT1=
EXTT2=
EXTT3=
EXTT4=
EXTT5=
EXTT6=
EXTT7=
EXTT8=
EXTT9=
EXTT10=
PLAYORDER=
